<svg id="visual" viewBox="0 0 960 540" width="960" height="540" xmlns="http://www.w3.org/2000/svg" xmlns:xlink="http://www.w3.org/1999/xlink" version="1.1"><g stroke-width="1" stroke-linejoin="bevel"><path d="M497.3 264L456.7 144L430.7 243Z" fill="#113644" stroke="#113644"></path><path d="M497.3 264L545.3 148L456.7 144Z" fill="#217c9e" stroke="#217c9e"></path><path d="M545.3 148L503.3 110L456.7 144Z" fill="#185369" stroke="#185369"></path><path d="M503.3 110L403.7 106L456.7 144Z" fill="#289dc9" stroke="#289dc9"></path><path d="M456.7 144L356 182L430.7 243Z" fill="#185369" stroke="#185369"></path><path d="M403.7 106L356 182L456.7 144Z" fill="#2387ac" stroke="#2387ac"></path><path d="M497.3 264L610 189L545.3 148Z" fill="#217c9e" stroke="#217c9e"></path><path d="M545.3 148L600 59L503.3 110Z" fill="#1c6783" stroke="#1c6783"></path><path d="M356 182L321 260L430.7 243Z" fill="#2592bb" stroke="#2592bb"></path><path d="M430.7 243L396.7 358L497.3 264Z" fill="#185369" stroke="#185369"></path><path d="M321 260L396.7 358L430.7 243Z" fill="#2387ac" stroke="#2387ac"></path><path d="M497.3 264L673 308L610 189Z" fill="#185369" stroke="#185369"></path><path d="M610 189L600 59L545.3 148Z" fill="#2592bb" stroke="#2592bb"></path><path d="M456.7 0L354 61L403.7 106Z" fill="#289dc9" stroke="#289dc9"></path><path d="M396.7 358L516.3 388L497.3 264Z" fill="#1a5d76" stroke="#1a5d76"></path><path d="M456.7 0L403.7 106L503.3 110Z" fill="#1a5d76" stroke="#1a5d76"></path><path d="M403.7 106L354 61L356 182Z" fill="#2387ac" stroke="#2387ac"></path><path d="M356 182L230.3 143L321 260Z" fill="#15495c" stroke="#15495c"></path><path d="M507.3 0L456.7 0L503.3 110Z" fill="#2387ac" stroke="#2387ac"></path><path d="M600 59L507.3 0L503.3 110Z" fill="#15495c" stroke="#15495c"></path><path d="M615 382L673 308L497.3 264Z" fill="#217c9e" stroke="#217c9e"></path><path d="M736.7 109L657 0L600 59Z" fill="#2592bb" stroke="#2592bb"></path><path d="M516.3 388L615 382L497.3 264Z" fill="#1e7191" stroke="#1e7191"></path><path d="M456.7 0L347 0L354 61Z" fill="#15495c" stroke="#15495c"></path><path d="M234.3 115L230.3 143L356 182Z" fill="#1a5d76" stroke="#1a5d76"></path><path d="M321 260L313 380L396.7 358Z" fill="#185369" stroke="#185369"></path><path d="M456.7 488L523.3 449L516.3 388Z" fill="#2592bb" stroke="#2592bb"></path><path d="M456.7 488L516.3 388L396.7 358Z" fill="#2387ac" stroke="#2387ac"></path><path d="M516.3 388L523.3 449L615 382Z" fill="#2387ac" stroke="#2387ac"></path><path d="M714.7 356L716.7 286L673 308Z" fill="#2387ac" stroke="#2387ac"></path><path d="M673 308L716.7 286L610 189Z" fill="#2592bb" stroke="#2592bb"></path><path d="M234.3 115L356 182L354 61Z" fill="#1c6783" stroke="#1c6783"></path><path d="M321 260L247.3 320L313 380Z" fill="#185369" stroke="#185369"></path><path d="M212.3 265L247.3 320L321 260Z" fill="#113644" stroke="#113644"></path><path d="M204.3 0L234.3 115L354 61Z" fill="#185369" stroke="#185369"></path><path d="M736.7 109L600 59L610 189Z" fill="#185369" stroke="#185369"></path><path d="M600 59L657 0L507.3 0Z" fill="#289dc9" stroke="#289dc9"></path><path d="M771.7 173L736.7 109L610 189Z" fill="#1a5d76" stroke="#1a5d76"></path><path d="M230.3 143L212.3 265L321 260Z" fill="#113644" stroke="#113644"></path><path d="M133.7 287L212.3 265L102.7 207Z" fill="#1c6783" stroke="#1c6783"></path><path d="M615 382L714.7 356L673 308Z" fill="#2387ac" stroke="#2387ac"></path><path d="M716.7 286L771.7 173L610 189Z" fill="#1c6783" stroke="#1c6783"></path><path d="M672 414L714.7 356L615 382Z" fill="#289dc9" stroke="#289dc9"></path><path d="M644 540L672 414L615 382Z" fill="#2387ac" stroke="#2387ac"></path><path d="M319 478L456.7 488L396.7 358Z" fill="#15495c" stroke="#15495c"></path><path d="M523.3 449L644 540L615 382Z" fill="#113644" stroke="#113644"></path><path d="M854.3 200L771.7 173L862.3 288Z" fill="#2592bb" stroke="#2592bb"></path><path d="M186.3 459L319 478L313 380Z" fill="#15495c" stroke="#15495c"></path><path d="M313 380L319 478L396.7 358Z" fill="#2592bb" stroke="#2592bb"></path><path d="M186.3 459L313 380L247.3 320Z" fill="#2387ac" stroke="#2387ac"></path><path d="M403.7 540L510.3 540L456.7 488Z" fill="#1a5d76" stroke="#1a5d76"></path><path d="M456.7 488L510.3 540L523.3 449Z" fill="#15495c" stroke="#15495c"></path><path d="M884.3 81L751.7 0L736.7 109Z" fill="#1a5d76" stroke="#1a5d76"></path><path d="M736.7 109L751.7 0L657 0Z" fill="#15495c" stroke="#15495c"></path><path d="M347 0L204.3 0L354 61Z" fill="#15495c" stroke="#15495c"></path><path d="M234.3 115L132.7 97L230.3 143Z" fill="#1a5d76" stroke="#1a5d76"></path><path d="M319 478L403.7 540L456.7 488Z" fill="#113644" stroke="#113644"></path><path d="M672 414L722.7 454L714.7 356Z" fill="#113644" stroke="#113644"></path><path d="M862.3 288L771.7 173L716.7 286Z" fill="#133f50" stroke="#133f50"></path><path d="M644 540L722.7 454L672 414Z" fill="#133f50" stroke="#133f50"></path><path d="M102.7 207L212.3 265L230.3 143Z" fill="#15495c" stroke="#15495c"></path><path d="M212.3 265L133.7 287L247.3 320Z" fill="#133f50" stroke="#133f50"></path><path d="M204.3 0L132.7 97L234.3 115Z" fill="#217c9e" stroke="#217c9e"></path><path d="M862.3 288L716.7 286L714.7 356Z" fill="#1c6783" stroke="#1c6783"></path><path d="M771.7 173L884.3 81L736.7 109Z" fill="#217c9e" stroke="#217c9e"></path><path d="M510.3 540L644 540L523.3 449Z" fill="#217c9e" stroke="#217c9e"></path><path d="M132.7 97L102.7 207L230.3 143Z" fill="#113644" stroke="#113644"></path><path d="M186.3 459L304 540L319 478Z" fill="#15495c" stroke="#15495c"></path><path d="M319 478L304 540L403.7 540Z" fill="#2387ac" stroke="#2387ac"></path><path d="M107.7 367L186.3 459L247.3 320Z" fill="#113644" stroke="#113644"></path><path d="M107.7 367L247.3 320L133.7 287Z" fill="#1a5d76" stroke="#1a5d76"></path><path d="M859.3 389L862.3 288L714.7 356Z" fill="#15495c" stroke="#15495c"></path><path d="M204.3 0L138.7 0L132.7 97Z" fill="#2387ac" stroke="#2387ac"></path><path d="M132.7 97L0 152L102.7 207Z" fill="#133f50" stroke="#133f50"></path><path d="M644 540L706.7 540L722.7 454Z" fill="#2592bb" stroke="#2592bb"></path><path d="M722.7 454L859.3 389L714.7 356Z" fill="#1c6783" stroke="#1c6783"></path><path d="M0 289L107.7 367L133.7 287Z" fill="#289dc9" stroke="#289dc9"></path><path d="M854.3 200L884.3 81L771.7 173Z" fill="#289dc9" stroke="#289dc9"></path><path d="M960 149L884.3 81L854.3 200Z" fill="#1e7191" stroke="#1e7191"></path><path d="M871.3 428L859.3 389L722.7 454Z" fill="#1a5d76" stroke="#1a5d76"></path><path d="M862.3 288L960 250L854.3 200Z" fill="#1a5d76" stroke="#1a5d76"></path><path d="M107.7 367L113.7 450L186.3 459Z" fill="#113644" stroke="#113644"></path><path d="M186.3 459L175.3 540L304 540Z" fill="#1a5d76" stroke="#1a5d76"></path><path d="M884.3 81L878.3 0L751.7 0Z" fill="#2592bb" stroke="#2592bb"></path><path d="M853.3 540L871.3 428L722.7 454Z" fill="#185369" stroke="#185369"></path><path d="M960 361L960 250L862.3 288Z" fill="#1e7191" stroke="#1e7191"></path><path d="M121.7 540L175.3 540L186.3 459Z" fill="#217c9e" stroke="#217c9e"></path><path d="M960 361L862.3 288L859.3 389Z" fill="#1c6783" stroke="#1c6783"></path><path d="M884.3 81L960 0L878.3 0Z" fill="#2387ac" stroke="#2387ac"></path><path d="M0 77L0 152L132.7 97Z" fill="#133f50" stroke="#133f50"></path><path d="M102.7 207L0 289L133.7 287Z" fill="#133f50" stroke="#133f50"></path><path d="M107.7 367L0 438L113.7 450Z" fill="#1c6783" stroke="#1c6783"></path><path d="M960 250L960 149L854.3 200Z" fill="#1c6783" stroke="#1c6783"></path><path d="M960 149L960 128L884.3 81Z" fill="#113644" stroke="#113644"></path><path d="M0 152L0 289L102.7 207Z" fill="#2387ac" stroke="#2387ac"></path><path d="M113.7 450L121.7 540L186.3 459Z" fill="#1e7191" stroke="#1e7191"></path><path d="M0 540L121.7 540L113.7 450Z" fill="#133f50" stroke="#133f50"></path><path d="M138.7 0L0 77L132.7 97Z" fill="#1c6783" stroke="#1c6783"></path><path d="M706.7 540L853.3 540L722.7 454Z" fill="#2592bb" stroke="#2592bb"></path><path d="M871.3 428L960 361L859.3 389Z" fill="#1e7191" stroke="#1e7191"></path><path d="M960 460L960 361L871.3 428Z" fill="#1a5d76" stroke="#1a5d76"></path><path d="M0 289L0 362L107.7 367Z" fill="#217c9e" stroke="#217c9e"></path><path d="M138.7 0L0 0L0 77Z" fill="#1e7191" stroke="#1e7191"></path><path d="M960 128L960 0L884.3 81Z" fill="#1e7191" stroke="#1e7191"></path><path d="M0 362L0 438L107.7 367Z" fill="#133f50" stroke="#133f50"></path><path d="M853.3 540L960 460L871.3 428Z" fill="#1e7191" stroke="#1e7191"></path><path d="M0 438L0 540L113.7 450Z" fill="#113644" stroke="#113644"></path><path d="M853.3 540L960 540L960 460Z" fill="#2387ac" stroke="#2387ac"></path></g></svg>